<svg width="375" height="812" viewBox="0 0 375 812" fill="none" xmlns="http://www.w3.org/2000/svg">
<g clip-path="url(#clip0_701_771)">
<rect width="375" height="812" fill="#70B9BE"/>
<path d="M506 644.746C520.081 603.021 522.714 510.325 467.812 473.03C412.909 435.734 315.471 452.013 279 473.03C242.529 494.047 108.5 503 128 435.246C154.56 342.959 166.5 306.746 100 329.246C33.5 351.746 62.4765 291.629 -12 301.746C-71.5812 309.839 -132 398.746 -183 294.746" stroke="#3DA0A7"/>
<path d="M20.118 60.1502C36.3349 83.0634 16.9802 102.828 2.69825 103.553C-48.6615 105.599 -36.4129 85.8455 -31.8172 53.6139C-27.2215 21.3822 3.90112 37.2371 20.118 60.1502Z" stroke="#3DA0A7"/>
<path d="M163.26 -59.2404C169.419 -53.8555 179.032 -34.527 168.217 -0.291725C154.698 42.5024 127.736 130.658 187.691 136.593C247.646 142.529 293.355 123.192 284.984 100.957C276.613 78.7229 228.24 94.9269 243.548 156.139C258.857 217.351 339.498 249.011 399.919 205.472" stroke="#3DA0A7"/>
<path d="M44.4244 554.66H37.2284V546.708H33.3364V566H37.2284V558.16H44.4244V566H48.3164V546.708H44.4244V554.66ZM65.1284 559.252C65.1284 555.248 62.0764 552.588 58.3244 552.588C54.6004 552.588 51.3804 555.248 51.3804 559.476C51.3804 563.508 54.3204 566.336 58.3524 566.336C60.6484 566.336 62.9164 565.356 64.1484 563.704L62.0204 561.548C61.2084 562.472 59.9204 563.088 58.5764 563.088C56.8404 563.088 55.6084 562.192 55.2164 560.652H65.0444C65.1004 560.064 65.1284 559.616 65.1284 559.252ZM55.2164 558.272C55.6084 556.508 56.8964 555.752 58.4084 555.752C60.0604 555.752 61.3204 556.732 61.4324 558.272H55.2164ZM71.6371 566V545.812H67.9691V566H71.6371ZM83.1926 552.588C81.7086 552.588 79.9166 553.204 78.9926 554.52V552.924H75.3246V572.412H78.9926V564.376C79.9166 565.72 81.7086 566.336 83.1926 566.336C86.5526 566.336 89.6046 563.676 89.6046 559.448C89.6046 555.276 86.5526 552.588 83.1926 552.588ZM82.4926 562.92C80.7846 562.92 79.1046 561.464 79.1046 559.476C79.1046 557.488 80.7006 556.004 82.4926 556.004C84.3406 556.004 85.8526 557.544 85.8526 559.476C85.8526 561.408 84.3406 562.92 82.4926 562.92ZM104.327 560.484L101.247 552.924H97.2149L102.395 564.768L99.2869 572.412H103.207L111.271 552.924H107.323L104.327 560.484ZM119.111 566.336C122.835 566.336 126.139 563.592 126.139 559.476C126.139 555.332 122.835 552.588 119.111 552.588C115.387 552.588 112.083 555.332 112.083 559.476C112.083 563.592 115.387 566.336 119.111 566.336ZM119.111 562.92C117.291 562.92 115.807 561.492 115.807 559.476C115.807 557.432 117.291 556.004 119.111 556.004C120.931 556.004 122.415 557.432 122.415 559.476C122.415 561.492 120.931 562.92 119.111 562.92ZM137.96 559.84C137.96 562.192 136.336 562.92 135.02 562.92C133.76 562.92 132.528 561.968 132.528 559.924V552.924H128.86V560.12C128.832 564.04 130.624 566.336 134.04 566.336C135.328 566.336 137.4 565.58 137.96 563.872V566H141.628V552.924H137.96V559.84ZM152.801 552.588C151.177 552.588 149.693 553.54 148.965 555.724V552.924H145.325V566H148.993V561.52C148.993 557.796 150.281 556.032 152.157 556.032C152.605 556.032 153.249 556.088 154.033 556.508L154.873 553.008C154.285 552.7 153.501 552.588 152.801 552.588ZM170.638 552.588C169.154 552.588 167.362 553.204 166.438 554.52V552.924H162.77V572.412H166.438V564.376C167.362 565.72 169.154 566.336 170.638 566.336C173.998 566.336 177.05 563.676 177.05 559.448C177.05 555.276 173.998 552.588 170.638 552.588ZM169.938 562.92C168.23 562.92 166.55 561.464 166.55 559.476C166.55 557.488 168.146 556.004 169.938 556.004C171.786 556.004 173.298 557.544 173.298 559.476C173.298 561.408 171.786 562.92 169.938 562.92ZM189.797 554.66C188.929 553.316 187.249 552.588 185.569 552.588C181.817 552.588 179.185 555.416 179.185 559.476C179.185 563.536 181.873 566.336 185.485 566.336C187.249 566.336 188.929 565.468 189.797 564.124V566H193.465V552.924H189.797V554.66ZM186.297 562.92C184.365 562.92 182.937 561.296 182.937 559.476C182.937 557.572 184.365 556.004 186.269 556.004C188.089 556.004 189.685 557.488 189.685 559.476C189.685 561.352 188.145 562.92 186.297 562.92ZM202.096 552.924V548.164H198.428V552.924H196.048V555.78H198.428V566H202.096V555.78H204.868V552.924H202.096ZM214.846 552.588C213.586 552.588 211.486 553.316 210.926 554.996V545.812H207.258V566H210.926V559.14C210.926 556.788 212.55 556.06 213.866 556.06C215.126 556.06 216.358 557.012 216.358 559.056V566H220.026V558.832C220.054 554.912 218.262 552.588 214.846 552.588ZM235.155 552.924V548.164H231.487V552.924H229.107V555.78H231.487V566H235.155V555.78H237.927V552.924H235.155ZM246.232 566.336C249.956 566.336 253.26 563.592 253.26 559.476C253.26 555.332 249.956 552.588 246.232 552.588C242.508 552.588 239.204 555.332 239.204 559.476C239.204 563.592 242.508 566.336 246.232 566.336ZM246.232 562.92C244.412 562.92 242.928 561.492 242.928 559.476C242.928 557.432 244.412 556.004 246.232 556.004C248.052 556.004 249.536 557.432 249.536 559.476C249.536 561.492 248.052 562.92 246.232 562.92ZM270.409 552.588C269.149 552.588 267.049 553.316 266.489 554.996V545.812H262.821V566H266.489V559.14C266.489 556.788 268.113 556.06 269.429 556.06C270.689 556.06 271.921 557.012 271.921 559.056V566H275.589V558.832C275.617 554.912 273.825 552.588 270.409 552.588ZM292.082 559.252C292.082 555.248 289.03 552.588 285.278 552.588C281.554 552.588 278.334 555.248 278.334 559.476C278.334 563.508 281.274 566.336 285.306 566.336C287.602 566.336 289.87 565.356 291.102 563.704L288.974 561.548C288.162 562.472 286.874 563.088 285.53 563.088C283.794 563.088 282.562 562.192 282.17 560.652H291.998C292.054 560.064 292.082 559.616 292.082 559.252ZM282.17 558.272C282.562 556.508 283.85 555.752 285.362 555.752C287.014 555.752 288.274 556.732 288.386 558.272H282.17ZM304.75 554.66C303.882 553.316 302.202 552.588 300.522 552.588C296.77 552.588 294.138 555.416 294.138 559.476C294.138 563.536 296.826 566.336 300.438 566.336C302.202 566.336 303.882 565.468 304.75 564.124V566H308.418V552.924H304.75V554.66ZM301.25 562.92C299.318 562.92 297.89 561.296 297.89 559.476C297.89 557.572 299.318 556.004 301.222 556.004C303.042 556.004 304.638 557.488 304.638 559.476C304.638 561.352 303.098 562.92 301.25 562.92ZM315.789 566V545.812H312.121V566H315.789ZM324.405 552.924V548.164H320.737V552.924H318.357V555.78H320.737V566H324.405V555.78H327.177V552.924H324.405ZM337.155 552.588C335.895 552.588 333.795 553.316 333.235 554.996V545.812H329.567V566H333.235V559.14C333.235 556.788 334.859 556.06 336.175 556.06C337.435 556.06 338.667 557.012 338.667 559.056V566H342.335V558.832C342.363 554.912 340.571 552.588 337.155 552.588ZM63.0315 590.492C62.0795 589.204 60.3155 588.588 58.8315 588.588C55.4715 588.588 52.4195 591.248 52.4195 595.448C52.4195 599.648 55.4715 602.336 58.8315 602.336C60.2875 602.336 62.0795 601.692 63.0315 600.404V600.768C63.0315 604.156 61.5475 605.472 59.1955 605.472C57.7955 605.472 56.4515 604.632 55.8915 603.428L52.8395 604.744C53.9595 607.18 56.3955 608.748 59.1955 608.748C63.8155 608.748 66.6995 606.088 66.6995 600.376V588.924H63.0315V590.492ZM59.5315 598.92C57.6835 598.92 56.1435 597.352 56.1435 595.448C56.1435 593.516 57.6835 592.004 59.5315 592.004C61.2395 592.004 62.9195 593.432 62.9195 595.448C62.9195 597.436 61.3235 598.92 59.5315 598.92ZM76.6187 602.336C80.3427 602.336 83.6467 599.592 83.6467 595.476C83.6467 591.332 80.3427 588.588 76.6187 588.588C72.8947 588.588 69.5907 591.332 69.5907 595.476C69.5907 599.592 72.8947 602.336 76.6187 602.336ZM76.6187 598.92C74.7987 598.92 73.3147 597.492 73.3147 595.476C73.3147 593.432 74.7987 592.004 76.6187 592.004C78.4387 592.004 79.9227 593.432 79.9227 595.476C79.9227 597.492 78.4387 598.92 76.6187 598.92ZM96.3635 590.66C95.4955 589.316 93.8155 588.588 92.1355 588.588C88.3835 588.588 85.7515 591.416 85.7515 595.476C85.7515 599.536 88.4395 602.336 92.0515 602.336C93.8155 602.336 95.4955 601.468 96.3635 600.124V602H100.032V588.924H96.3635V590.66ZM92.8635 598.92C90.9315 598.92 89.5035 597.296 89.5035 595.476C89.5035 593.572 90.9315 592.004 92.8355 592.004C94.6555 592.004 96.2515 593.488 96.2515 595.476C96.2515 597.352 94.7115 598.92 92.8635 598.92ZM107.403 602V581.812H103.735V602H107.403ZM115.71 602.336C118.398 602.336 121.198 600.908 121.198 598.164C121.198 597.1 120.806 595.14 117.67 594.3L115.514 593.74C114.786 593.544 114.226 593.236 114.226 592.62C114.226 591.948 114.898 591.472 115.738 591.472C116.606 591.472 117.334 591.948 117.334 592.844H120.834C120.862 589.736 118.062 588.588 115.682 588.588C112.658 588.588 110.558 590.492 110.558 592.508C110.558 593.88 111.006 595.756 114.366 596.652L116.102 597.072C117.082 597.324 117.53 597.604 117.53 598.164C117.53 598.92 116.718 599.452 115.654 599.452C114.366 599.452 113.722 598.64 113.722 597.884H110.278C110.306 600.768 112.966 602.336 115.71 602.336ZM143.273 596.904L140.781 588.924H137.701L135.209 596.904L132.745 588.924H128.769L133.529 602H136.665L139.269 593.516L141.957 602H145.093L149.713 588.924H145.737L143.273 596.904ZM153.57 586.628C154.858 586.628 155.894 585.648 155.894 584.416C155.894 583.184 154.858 582.232 153.57 582.232C152.31 582.232 151.246 583.184 151.246 584.416C151.246 585.648 152.31 586.628 153.57 586.628ZM155.418 602V588.924H151.75V602H155.418ZM164.034 588.924V584.164H160.366V588.924H157.986V591.78H160.366V602H164.034V591.78H166.806V588.924H164.034ZM176.784 588.588C175.524 588.588 173.424 589.316 172.864 590.996V581.812H169.196V602H172.864V595.14C172.864 592.788 174.488 592.06 175.804 592.06C177.064 592.06 178.296 593.012 178.296 595.056V602H181.964V594.832C181.992 590.912 180.2 588.588 176.784 588.588ZM199.752 588.588C198.492 588.588 196.392 589.316 195.832 590.996V581.812H192.164V602H195.832V595.14C195.832 592.788 197.456 592.06 198.772 592.06C200.032 592.06 201.264 593.012 201.264 595.056V602H204.932V594.832C204.96 590.912 203.168 588.588 199.752 588.588ZM218.289 590.66C217.421 589.316 215.741 588.588 214.061 588.588C210.309 588.588 207.677 591.416 207.677 595.476C207.677 599.536 210.365 602.336 213.977 602.336C215.741 602.336 217.421 601.468 218.289 600.124V602H221.957V588.924H218.289V590.66ZM214.789 598.92C212.857 598.92 211.429 597.296 211.429 595.476C211.429 593.572 212.857 592.004 214.761 592.004C216.581 592.004 218.177 593.488 218.177 595.476C218.177 597.352 216.637 598.92 214.789 598.92ZM233.529 588.588C232.044 588.588 230.253 589.204 229.329 590.52V588.924H225.66V608.412H229.329V600.376C230.253 601.72 232.044 602.336 233.529 602.336C236.889 602.336 239.941 599.676 239.941 595.448C239.941 591.276 236.889 588.588 233.529 588.588ZM232.829 598.92C231.121 598.92 229.441 597.464 229.441 595.476C229.441 593.488 231.037 592.004 232.829 592.004C234.677 592.004 236.189 593.544 236.189 595.476C236.189 597.408 234.677 598.92 232.829 598.92ZM250.728 588.588C249.244 588.588 247.452 589.204 246.528 590.52V588.924H242.86V608.412H246.528V600.376C247.452 601.72 249.244 602.336 250.728 602.336C254.088 602.336 257.14 599.676 257.14 595.448C257.14 591.276 254.088 588.588 250.728 588.588ZM250.028 598.92C248.32 598.92 246.64 597.464 246.64 595.476C246.64 593.488 248.236 592.004 250.028 592.004C251.876 592.004 253.388 593.544 253.388 595.476C253.388 597.408 251.876 598.92 250.028 598.92ZM261.879 586.628C263.167 586.628 264.203 585.648 264.203 584.416C264.203 583.184 263.167 582.232 261.879 582.232C260.619 582.232 259.555 583.184 259.555 584.416C259.555 585.648 260.619 586.628 261.879 586.628ZM263.727 602V588.924H260.059V602H263.727ZM275.002 588.588C273.714 588.588 271.642 589.372 271.082 591.136V588.924H267.414V602H271.082V595.14C271.082 592.76 272.706 592.06 274.022 592.06C275.282 592.06 276.514 592.984 276.514 595.028V602H280.182V594.832C280.21 590.912 278.418 588.588 275.002 588.588ZM296.675 595.252C296.675 591.248 293.623 588.588 289.871 588.588C286.147 588.588 282.927 591.248 282.927 595.476C282.927 599.508 285.867 602.336 289.899 602.336C292.195 602.336 294.463 601.356 295.695 599.704L293.567 597.548C292.755 598.472 291.467 599.088 290.123 599.088C288.387 599.088 287.155 598.192 286.763 596.652H296.591C296.647 596.064 296.675 595.616 296.675 595.252ZM286.763 594.272C287.155 592.508 288.443 591.752 289.955 591.752C291.607 591.752 292.867 592.732 292.979 594.272H286.763ZM304.136 602.336C306.824 602.336 309.624 600.908 309.624 598.164C309.624 597.1 309.232 595.14 306.096 594.3L303.94 593.74C303.212 593.544 302.652 593.236 302.652 592.62C302.652 591.948 303.324 591.472 304.164 591.472C305.032 591.472 305.76 591.948 305.76 592.844H309.26C309.288 589.736 306.488 588.588 304.108 588.588C301.084 588.588 298.984 590.492 298.984 592.508C298.984 593.88 299.432 595.756 302.792 596.652L304.528 597.072C305.508 597.324 305.956 597.604 305.956 598.164C305.956 598.92 305.144 599.452 304.08 599.452C302.792 599.452 302.148 598.64 302.148 597.884H298.704C298.732 600.768 301.392 602.336 304.136 602.336ZM317.124 602.336C319.812 602.336 322.612 600.908 322.612 598.164C322.612 597.1 322.22 595.14 319.084 594.3L316.928 593.74C316.2 593.544 315.64 593.236 315.64 592.62C315.64 591.948 316.312 591.472 317.152 591.472C318.02 591.472 318.748 591.948 318.748 592.844H322.248C322.276 589.736 319.476 588.588 317.096 588.588C314.072 588.588 311.972 590.492 311.972 592.508C311.972 593.88 312.42 595.756 315.78 596.652L317.516 597.072C318.496 597.324 318.944 597.604 318.944 598.164C318.944 598.92 318.132 599.452 317.068 599.452C315.78 599.452 315.136 598.64 315.136 597.884H311.692C311.72 600.768 314.38 602.336 317.124 602.336Z" fill="white"/>
<path d="M313.094 62.598H310.592V75H317.792V72.786H313.094V62.598ZM325.516 67.71C324.958 66.846 323.878 66.378 322.798 66.378C320.386 66.378 318.694 68.196 318.694 70.806C318.694 73.416 320.422 75.216 322.744 75.216C323.878 75.216 324.958 74.658 325.516 73.794V75H327.874V66.594H325.516V67.71ZM323.266 73.02C322.024 73.02 321.106 71.976 321.106 70.806C321.106 69.582 322.024 68.574 323.248 68.574C324.418 68.574 325.444 69.528 325.444 70.806C325.444 72.012 324.454 73.02 323.266 73.02ZM333.422 66.594V63.534H331.064V66.594H329.534V68.43H331.064V75H333.422V68.43H335.204V66.594H333.422ZM344.881 70.662C344.881 68.088 342.919 66.378 340.507 66.378C338.113 66.378 336.043 68.088 336.043 70.806C336.043 73.398 337.933 75.216 340.525 75.216C342.001 75.216 343.459 74.586 344.251 73.524L342.883 72.138C342.361 72.732 341.533 73.128 340.669 73.128C339.553 73.128 338.761 72.552 338.509 71.562H344.827C344.863 71.184 344.881 70.896 344.881 70.662ZM338.509 70.032C338.761 68.898 339.589 68.412 340.561 68.412C341.623 68.412 342.433 69.042 342.505 70.032H338.509ZM351.514 66.378C350.47 66.378 349.516 66.99 349.048 68.394V66.594H346.708V75H349.066V72.12C349.066 69.726 349.894 68.592 351.1 68.592C351.388 68.592 351.802 68.628 352.306 68.898L352.846 66.648C352.468 66.45 351.964 66.378 351.514 66.378Z" fill="#E6EBF2"/>
<path d="M121.686 715.432L123.574 716.744C122.598 718.232 120.902 719.16 118.934 719.16C117.366 719.16 116.054 718.616 114.982 717.512C113.926 716.408 113.398 715.08 113.398 713.512C113.398 711.928 113.926 710.6 114.982 709.496C116.054 708.392 117.366 707.848 118.934 707.848C120.854 707.848 122.55 708.76 123.526 710.184L121.622 711.496C120.966 710.536 120.07 710.056 118.934 710.056C118.022 710.056 117.27 710.392 116.662 711.064C116.054 711.72 115.75 712.536 115.75 713.512C115.75 714.472 116.054 715.288 116.662 715.96C117.27 716.616 118.022 716.952 118.934 716.952C120.07 716.952 121.062 716.344 121.686 715.432ZM127.178 716.392V719H124.954V711.528H127.178V713.336C127.546 712.04 128.442 711.368 129.29 711.368C129.786 711.368 130.202 711.464 130.57 711.64L130.17 713.64C129.866 713.496 129.482 713.416 129.034 713.416C127.802 713.416 127.178 714.408 127.178 716.392ZM136.842 716.536L138.458 717.64C137.77 718.648 136.634 719.16 135.05 719.16C133.946 719.16 133.018 718.792 132.266 718.072C131.514 717.336 131.146 716.392 131.146 715.24C131.146 714.088 131.514 713.16 132.266 712.44C133.018 711.72 133.946 711.368 135.05 711.368C136.138 711.368 137.05 711.736 137.77 712.472C138.506 713.192 138.874 714.136 138.874 715.304C138.874 715.512 138.858 715.736 138.842 715.992H133.37C133.482 716.808 134.33 717.24 135.21 717.24C135.93 717.24 136.474 717 136.842 716.536ZM133.402 714.6H136.634C136.41 712.904 133.754 712.888 133.402 714.6ZM148.135 719H145.927V718.152C145.719 718.472 145.383 718.712 144.935 718.888C144.503 719.064 144.103 719.144 143.751 719.144C142.743 719.144 141.863 718.792 141.095 718.072C140.327 717.352 139.943 716.408 139.943 715.256C139.943 714.104 140.327 713.176 141.095 712.456C141.863 711.736 142.743 711.368 143.751 711.368C144.455 711.368 145.415 711.64 145.927 712.36V711.528H148.135V719ZM144.119 717.032C145.079 717.032 145.927 716.328 145.927 715.256C145.927 714.184 145.079 713.48 144.119 713.48C143.623 713.48 143.191 713.656 142.807 713.992C142.439 714.328 142.247 714.744 142.247 715.256C142.247 715.768 142.439 716.2 142.807 716.536C143.191 716.872 143.623 717.032 144.119 717.032ZM153.1 708.664V711.528H154.668V713.288H153.1V719H150.892V713.288H149.532V711.528H150.892V708.664H153.1ZM161.17 716.536L162.786 717.64C162.098 718.648 160.962 719.16 159.378 719.16C158.274 719.16 157.346 718.792 156.594 718.072C155.842 717.336 155.474 716.392 155.474 715.24C155.474 714.088 155.842 713.16 156.594 712.44C157.346 711.72 158.274 711.368 159.378 711.368C160.466 711.368 161.378 711.736 162.098 712.472C162.834 713.192 163.202 714.136 163.202 715.304C163.202 715.512 163.186 715.736 163.17 715.992H157.698C157.81 716.808 158.658 717.24 159.538 717.24C160.258 717.24 160.802 717 161.17 716.536ZM157.73 714.6H160.962C160.738 712.904 158.082 712.888 157.73 714.6ZM174.818 707.976H177.17V719H175.074L171.234 712.328V719H168.898V707.976H171.042L174.818 714.568V707.976ZM184.561 716.536L186.177 717.64C185.489 718.648 184.353 719.16 182.769 719.16C181.665 719.16 180.737 718.792 179.985 718.072C179.233 717.336 178.865 716.392 178.865 715.24C178.865 714.088 179.233 713.16 179.985 712.44C180.737 711.72 181.665 711.368 182.769 711.368C183.857 711.368 184.769 711.736 185.489 712.472C186.225 713.192 186.593 714.136 186.593 715.304C186.593 715.512 186.577 715.736 186.561 715.992H181.089C181.201 716.808 182.049 717.24 182.929 717.24C183.649 717.24 184.193 717 184.561 716.536ZM181.121 714.6H184.353C184.129 712.904 181.473 712.888 181.121 714.6ZM196.672 711.528H199.04L196.416 719H194.56L193.088 714.248L191.68 719H189.824L187.12 711.528H189.488L190.816 715.976L192.128 711.528H194.032L195.344 715.976L196.672 711.528ZM207.491 710.52L206.371 714.36H208.659L207.491 710.52ZM210.387 719L209.411 716.392H205.603L204.627 719H202.131L206.227 707.976H208.771L212.851 719H210.387ZM217.335 711.368C218.663 711.368 219.863 711.944 220.583 712.952L218.775 714.248C218.455 713.752 217.975 713.496 217.335 713.496C216.839 713.496 216.407 713.656 216.039 713.992C215.671 714.312 215.479 714.728 215.479 715.24C215.479 715.768 215.671 716.2 216.039 716.536C216.407 716.872 216.839 717.032 217.335 717.032C217.975 717.032 218.455 716.776 218.775 716.28L220.583 717.56C219.879 718.568 218.679 719.16 217.335 719.16C216.231 719.16 215.271 718.792 214.471 718.056C213.671 717.32 213.271 716.376 213.271 715.24C213.271 714.104 213.671 713.176 214.471 712.456C215.271 711.736 216.231 711.368 217.335 711.368ZM225.648 711.368C226.976 711.368 228.176 711.944 228.896 712.952L227.088 714.248C226.768 713.752 226.288 713.496 225.648 713.496C225.152 713.496 224.72 713.656 224.352 713.992C223.984 714.312 223.792 714.728 223.792 715.24C223.792 715.768 223.984 716.2 224.352 716.536C224.72 716.872 225.152 717.032 225.648 717.032C226.288 717.032 226.768 716.776 227.088 716.28L228.896 717.56C228.192 718.568 226.992 719.16 225.648 719.16C224.544 719.16 223.584 718.792 222.784 718.056C221.984 717.32 221.584 716.376 221.584 715.24C221.584 714.104 221.984 713.176 222.784 712.456C223.584 711.736 224.544 711.368 225.648 711.368ZM233.768 716.952C234.728 716.952 235.464 716.264 235.464 715.24C235.464 714.264 234.712 713.544 233.768 713.544C232.824 713.544 232.088 714.264 232.088 715.24C232.088 716.264 232.824 716.952 233.768 716.952ZM236.52 718.056C235.768 718.776 234.856 719.128 233.768 719.128C232.68 719.128 231.768 718.776 231.016 718.056C230.264 717.336 229.896 716.392 229.896 715.24C229.896 714.088 230.264 713.16 231.016 712.44C231.768 711.72 232.68 711.368 233.768 711.368C234.856 711.368 235.768 711.72 236.52 712.44C237.272 713.16 237.656 714.088 237.656 715.24C237.656 716.392 237.272 717.336 236.52 718.056ZM244.067 715.48V711.528H246.291V719H244.067V717.976C243.683 718.696 242.883 719.16 242.131 719.16C240.387 719.16 239.171 718.04 239.171 715.992V711.528H241.395V715.512C241.395 716.584 242.067 717 242.723 717C243.491 717 244.067 716.52 244.067 715.48ZM250.568 715.048V719H248.344V711.528H250.568V712.616C250.968 711.864 251.848 711.368 252.728 711.368C254.456 711.368 255.464 712.44 255.464 714.536V719H253.24V715.016C253.24 714.056 252.728 713.528 251.944 713.528C251.032 713.528 250.568 714.04 250.568 715.048ZM260.35 708.664V711.528H261.918V713.288H260.35V719H258.142V713.288H256.782V711.528H258.142V708.664H260.35Z" fill="white"/>
<rect x="24" y="634" width="327" height="54" rx="16" fill="#042628"/>
<path d="M175.237 665H168.757V653.976H171.109V662.936H175.237V665ZM180.003 662.952C180.963 662.952 181.699 662.264 181.699 661.24C181.699 660.264 180.947 659.544 180.003 659.544C179.059 659.544 178.323 660.264 178.323 661.24C178.323 662.264 179.059 662.952 180.003 662.952ZM182.755 664.056C182.003 664.776 181.091 665.128 180.003 665.128C178.915 665.128 178.003 664.776 177.251 664.056C176.499 663.336 176.131 662.392 176.131 661.24C176.131 660.088 176.499 659.16 177.251 658.44C178.003 657.72 178.915 657.368 180.003 657.368C181.091 657.368 182.003 657.72 182.755 658.44C183.507 659.16 183.891 660.088 183.891 661.24C183.891 662.392 183.507 663.336 182.755 664.056ZM190.957 661.24C190.957 660.168 190.125 659.48 189.149 659.48C188.173 659.48 187.357 660.216 187.357 661.24C187.357 662.328 188.173 663.064 189.149 663.064C189.629 663.064 190.045 662.888 190.413 662.552C190.781 662.2 190.957 661.768 190.957 661.24ZM185.261 666.408L187.053 665.528C187.309 666.216 188.173 666.728 188.941 666.728C190.429 666.728 191.117 665.848 191.005 664.072C190.669 664.728 189.725 665.16 188.765 665.16C187.757 665.16 186.893 664.792 186.141 664.072C185.405 663.352 185.037 662.424 185.037 661.288C185.037 660.136 185.405 659.192 186.141 658.472C186.893 657.736 187.757 657.368 188.765 657.368C189.725 657.368 190.637 657.8 191.005 658.456V657.528H193.165V663.96C193.165 667.112 191.645 668.728 188.941 668.728C187.293 668.728 185.901 667.816 185.261 666.408ZM195.219 657.528H197.427V665H195.219V657.528ZM196.323 653.464C197.075 653.464 197.683 654.04 197.683 654.76C197.683 655.48 197.075 656.072 196.323 656.072C195.555 656.072 194.931 655.48 194.931 654.76C194.931 654.04 195.555 653.464 196.323 653.464ZM201.693 661.048V665H199.469V657.528H201.693V658.616C202.093 657.864 202.973 657.368 203.853 657.368C205.581 657.368 206.589 658.44 206.589 660.536V665H204.365V661.016C204.365 660.056 203.853 659.528 203.069 659.528C202.157 659.528 201.693 660.04 201.693 661.048Z" fill="white"/>
<path d="M44.9475 467.922C41.8327 471.037 36.6005 470.855 36.6005 470.855C36.6005 470.855 36.4184 465.623 39.5332 462.508C42.648 459.393 47.8802 459.575 47.8802 459.575C47.8802 459.575 48.0623 464.807 44.9475 467.922Z" fill="#FFF1CE"/>
<circle cx="96" cy="349" r="4" fill="#FFF1CE"/>
<circle cx="254" cy="359" r="4" fill="#FFF1CE"/>
<circle cx="341" cy="325" r="4" fill="#FFF1CE"/>
<circle cx="268.5" cy="166.5" r="3.5" fill="#FFF1CE"/>
<circle cx="91.5" cy="267.5" r="3.5" fill="#FFF1CE"/>
<circle cx="193" cy="208" r="3" fill="#FFF1CE"/>
<path d="M297.322 346.432C298.236 350.542 301.159 354.104 304.903 356.205C308.466 358.215 312.302 358.58 316.321 358.397C316.504 358.397 316.686 358.397 316.778 358.397C316.778 358.215 316.778 358.032 316.778 357.849C316.412 352.552 314.586 347.345 311.663 342.961C308.74 338.759 304.812 335.288 300.976 332C298.053 336.202 296.226 341.773 297.322 346.432Z" fill="#AEDC90"/>
<path d="M297.322 346.432C298.236 350.542 301.159 354.104 304.903 356.205C308.466 358.215 312.302 358.58 316.321 358.397C316.504 358.397 316.686 358.397 316.778 358.397C299.24 348.624 300.885 332 300.885 332C298.053 336.202 296.226 341.773 297.322 346.432Z" fill="#7CA661"/>
<path d="M301.707 340.403C302.529 344.514 304.995 348.533 307.644 351.638C310.018 354.378 312.941 356.845 316.23 358.489C316.412 358.489 316.595 358.489 316.686 358.489C316.686 358.306 316.686 358.123 316.686 357.941C313.398 356.114 310.475 354.013 308.009 351.09C306.639 349.446 305.451 347.71 304.447 345.792C303.533 344.057 302.894 342.139 302.255 340.312C302.163 339.855 301.615 340.038 301.707 340.403Z" fill="#39700B"/>
<g clip-path="url(#clip1_701_771)">
<rect opacity="0.35" x="336.5" y="17.8335" width="21" height="10.3333" rx="2.16667" stroke="white"/>
<path opacity="0.4" d="M359 21V25C359.805 24.6612 360.328 23.8731 360.328 23C360.328 22.1269 359.805 21.3388 359 21Z" fill="white"/>
<rect x="338" y="19.3335" width="18" height="7.33333" rx="1.33333" fill="white"/>
<path fill-rule="evenodd" clip-rule="evenodd" d="M323.33 19.6079C325.546 19.608 327.678 20.4594 329.283 21.9862C329.404 22.1041 329.598 22.1026 329.717 21.9829L330.873 20.8162C330.933 20.7555 330.967 20.6733 330.966 20.5877C330.966 20.5021 330.931 20.4202 330.87 20.3602C326.655 16.3207 320.005 16.3207 315.79 20.3602C315.729 20.4202 315.694 20.502 315.694 20.5876C315.693 20.6732 315.727 20.7555 315.787 20.8162L316.943 21.9829C317.062 22.1028 317.256 22.1043 317.377 21.9862C318.983 20.4593 321.114 19.6079 323.33 19.6079ZM323.33 23.4036C324.548 23.4035 325.722 23.856 326.624 24.6732C326.747 24.7892 326.939 24.7867 327.058 24.6676L328.212 23.5009C328.273 23.4397 328.307 23.3567 328.306 23.2704C328.305 23.1842 328.27 23.1018 328.208 23.0419C325.46 20.4855 321.204 20.4855 318.455 23.0419C318.393 23.1018 318.358 23.1842 318.357 23.2705C318.356 23.3568 318.39 23.4398 318.451 23.5009L319.605 24.6676C319.724 24.7867 319.917 24.7892 320.039 24.6732C320.941 23.8566 322.114 23.4041 323.33 23.4036ZM325.643 25.9574C325.645 26.0439 325.611 26.1273 325.549 26.1879L323.552 28.2036C323.494 28.2628 323.414 28.2961 323.33 28.2961C323.247 28.2961 323.167 28.2628 323.109 28.2036L321.111 26.1879C321.049 26.1272 321.015 26.0438 321.017 25.9573C321.019 25.8708 321.057 25.7889 321.121 25.7309C322.396 24.652 324.265 24.652 325.54 25.7309C325.604 25.7889 325.642 25.8709 325.643 25.9574Z" fill="white"/>
<path fill-rule="evenodd" clip-rule="evenodd" d="M309.667 17.6665H308.667C308.114 17.6665 307.667 18.1142 307.667 18.6665V27.3332C307.667 27.8855 308.114 28.3332 308.667 28.3332H309.667C310.219 28.3332 310.667 27.8855 310.667 27.3332V18.6665C310.667 18.1142 310.219 17.6665 309.667 17.6665ZM304 19.9998H305C305.552 19.9998 306 20.4476 306 20.9998V27.3332C306 27.8855 305.552 28.3332 305 28.3332H304C303.448 28.3332 303 27.8855 303 27.3332V20.9998C303 20.4476 303.448 19.9998 304 19.9998ZM300.333 22.3332H299.333C298.781 22.3332 298.333 22.7809 298.333 23.3332V27.3332C298.333 27.8855 298.781 28.3332 299.333 28.3332H300.333C300.886 28.3332 301.333 27.8855 301.333 27.3332V23.3332C301.333 22.7809 300.886 22.3332 300.333 22.3332ZM295.667 24.3332H294.667C294.114 24.3332 293.667 24.7809 293.667 25.3332V27.3332C293.667 27.8855 294.114 28.3332 294.667 28.3332H295.667C296.219 28.3332 296.667 27.8855 296.667 27.3332V25.3332C296.667 24.7809 296.219 24.3332 295.667 24.3332Z" fill="white"/>
<path d="M37.8516 18.8896C35.712 18.8896 34.1876 20.3525 34.1876 22.3555V22.3691C34.1876 24.2422 35.5138 25.623 37.4073 25.623C38.7608 25.623 39.6221 24.9326 39.9845 24.1533H40.1212C40.1212 24.2285 40.1143 24.3037 40.1143 24.3789C40.0391 26.2656 39.3761 27.7969 37.8106 27.7969C36.9425 27.7969 36.3341 27.3457 36.0743 26.6553L36.0538 26.5869H34.3175L34.3311 26.6621C34.6456 28.1729 35.9991 29.2461 37.8106 29.2461C40.2921 29.2461 41.7891 27.2773 41.7891 23.9551V23.9414C41.7891 20.3867 39.9571 18.8896 37.8516 18.8896ZM37.8448 24.2695C36.7237 24.2695 35.9102 23.4492 35.9102 22.3076V22.2939C35.9102 21.1934 36.7784 20.3252 37.8653 20.3252C38.9591 20.3252 39.8136 21.207 39.8136 22.335V22.3486C39.8136 23.4629 38.9591 24.2695 37.8448 24.2695ZM44.6127 22.6084C45.2416 22.6084 45.6996 22.1299 45.6996 21.5283C45.6996 20.9199 45.2416 20.4482 44.6127 20.4482C43.9906 20.4482 43.5257 20.9199 43.5257 21.5283C43.5257 22.1299 43.9906 22.6084 44.6127 22.6084ZM44.6127 27.6807C45.2416 27.6807 45.6996 27.209 45.6996 26.6006C45.6996 25.9922 45.2416 25.5205 44.6127 25.5205C43.9906 25.5205 43.5257 25.9922 43.5257 26.6006C43.5257 27.209 43.9906 27.6807 44.6127 27.6807ZM52.2213 29H53.9098V27.1064H55.236V25.6504H53.9098V19.1357H51.4147C50.0748 21.1729 48.6735 23.4424 47.3952 25.6641V27.1064H52.2213V29ZM49.0358 25.6914V25.5889C49.9928 23.9141 51.1344 22.0889 52.1461 20.5439H52.2487V25.6914H49.0358ZM59.2079 29H60.9716V19.1357H59.2148L56.6376 20.9473V22.6084L59.0917 20.8721H59.2079V29Z" fill="white"/>
</g>
<path d="M131.796 244.748C137 242.597 141.788 238.85 144.98 235.173C151.433 227.679 152.474 216.646 150.322 207.001C149.212 201.935 147.269 196.939 144.147 192.776C136.237 181.951 122.498 175.984 109.175 175.082C100.918 174.527 91.8972 176.817 84.9583 181.257C73.648 188.613 68.5826 204.295 74.4806 217.409C79.8929 229.413 88.7053 227.193 98.4197 232.536C106.399 236.907 111.187 245.789 121.179 246.691C124.718 246.969 128.396 246.205 131.796 244.748Z" fill="#F4F4F4"/>
<path d="M74.5501 217.34C79.9625 229.344 88.7748 227.123 98.4892 232.466C106.469 236.838 111.257 245.72 121.249 246.622C124.718 246.899 128.326 246.136 131.796 244.679C133.877 243.846 135.82 242.736 137.694 241.487C114.449 240.307 87.3871 222.405 82.6686 207.764C79.338 197.356 83.2237 186.878 87.1095 179.87C86.3462 180.286 85.6523 180.702 84.9584 181.119C73.7175 188.543 68.6521 204.225 74.5501 217.34Z" fill="#E3E3E3"/>
<path d="M126.938 229.899C135.408 229.899 142.273 223.033 142.273 214.564C142.273 206.095 135.408 199.229 126.938 199.229C118.469 199.229 111.604 206.095 111.604 214.564C111.604 223.033 118.469 229.899 126.938 229.899Z" fill="#EBB64A"/>
<path d="M130.894 226.846C122.428 226.846 115.559 219.976 115.559 211.511C115.559 207.486 117.155 203.809 119.722 201.033C114.934 203.601 111.604 208.666 111.604 214.564C111.604 223.029 118.473 229.899 126.938 229.899C131.379 229.899 135.334 228.025 138.11 225.042C135.959 226.221 133.461 226.846 130.894 226.846Z" fill="#E3A63B"/>
<path d="M138.387 215.535C136.306 217.131 136.583 212.343 133.877 208.874C131.171 205.404 126.453 204.502 128.534 202.906C130.616 201.31 134.502 202.768 137.208 206.237C139.983 209.776 140.469 213.87 138.387 215.535Z" fill="white"/>
<path d="M263.085 180.791C259.807 179.611 256.135 179.742 252.923 181.25C246.105 184.528 234.566 190.822 233.123 197.181C231.091 206.36 254.496 217.964 277.443 237.239C300.389 256.514 302.881 264.25 307.011 257.628C311.141 251.007 327.532 233.633 314.55 213.243C304.323 197.115 275.017 185.118 263.085 180.791Z" fill="#ECB579"/>
<path d="M307.011 257.628C309.305 253.957 315.468 246.876 318.156 237.829C314.55 241.304 310.027 244.188 304.716 242.68C292.194 239.14 268.002 209.179 249.907 197.902C244.007 194.165 239.221 192.919 235.549 192.919C234.369 194.362 233.517 195.804 233.189 197.246C231.157 206.425 254.562 218.029 277.508 237.304C300.324 256.514 302.88 264.25 307.011 257.628Z" fill="#DFA164"/>
<path d="M261.643 221.307C264.134 220.586 266.822 220.586 269.445 220.52C270.1 220.52 270.756 220.52 271.411 220.52C282.032 220.258 290.686 216.914 295.866 211.014C296.98 209.703 297.964 208.326 298.947 206.949C299.34 206.359 299.734 205.769 300.193 205.179C301.111 203.868 302.16 202.622 303.209 201.376C302.75 201.049 302.291 200.721 301.832 200.393C300.783 201.639 299.799 202.884 298.816 204.196C298.423 204.786 297.964 205.376 297.57 205.966C296.652 207.277 295.669 208.654 294.62 209.899C289.769 215.472 281.508 218.619 271.411 218.881C270.756 218.881 270.166 218.881 269.51 218.881C266.757 218.881 264.003 218.947 261.249 219.734C259.741 220.193 258.365 220.783 257.053 221.569C257.578 221.897 258.037 222.291 258.561 222.618C259.479 222.094 260.528 221.635 261.643 221.307Z" fill="#F2D0A4"/>
<path d="M249.383 206.032C250.563 206.359 251.743 206.622 252.857 206.95C258.561 208.392 265.249 209.572 271.542 207.474C276.263 205.901 280.196 202.688 283.737 199.344C285.966 197.312 288.064 195.149 290.162 193.051C289.637 192.788 289.178 192.46 288.654 192.198C286.687 194.231 284.655 196.197 282.622 198.099C279.213 201.246 275.476 204.393 271.018 205.835C265.183 207.736 258.758 206.622 253.251 205.245C252.071 204.983 250.956 204.655 249.776 204.327C244.99 203.081 240.007 201.77 234.959 201.77C234.631 201.77 234.304 201.77 233.976 201.77C234.304 202.295 234.631 202.885 235.025 203.409C239.876 203.54 244.728 204.786 249.383 206.032Z" fill="#F2D0A4"/>
<path d="M252.726 215.079C257.25 213.636 262.036 213.702 265.773 213.899C266.101 213.899 266.429 213.964 266.822 213.964C269.313 214.095 271.87 214.226 274.427 213.702C277.64 212.981 280.393 211.145 282.95 209.375C286.949 206.556 291.08 203.409 294.161 199.147C294.817 198.23 295.341 197.377 295.866 196.394C295.407 196.066 294.948 195.804 294.423 195.542C293.964 196.459 293.44 197.312 292.784 198.164C289.899 202.229 285.9 205.31 281.967 207.998C279.541 209.703 276.918 211.407 273.968 212.063C271.673 212.587 269.182 212.456 266.822 212.325C266.494 212.325 266.166 212.26 265.773 212.26C261.905 212.063 256.857 211.997 252.136 213.505C250.694 213.964 249.383 214.554 248.137 215.21C248.596 215.603 249.12 215.931 249.645 216.324C250.628 215.8 251.677 215.407 252.726 215.079Z" fill="#F2D0A4"/>
<path d="M268.133 193.313C265.052 194.69 261.184 194.69 256.332 193.313C251.546 191.936 247.023 189.707 243.023 186.757C242.499 187.085 242.04 187.412 241.515 187.74C245.777 190.953 250.694 193.444 255.873 194.952C261.118 196.46 265.38 196.46 268.854 194.886C272.591 193.182 275.017 189.969 277.115 186.494C276.591 186.232 276.066 186.036 275.542 185.839C273.509 188.986 271.411 191.87 268.133 193.313Z" fill="#F2D0A4"/>
<path d="M246.76 184.462C250.694 186.625 255.087 188.527 259.741 188.986C261.839 189.182 263.609 189.051 265.117 188.461C267.346 187.674 269.248 185.97 270.625 183.675C270.1 183.478 269.576 183.216 269.051 183.02C267.871 184.855 266.363 186.232 264.593 186.822C263.347 187.281 261.839 187.412 259.938 187.215C255.939 186.822 252.071 185.249 248.53 183.413C247.94 183.806 247.35 184.134 246.76 184.462Z" fill="#F2D0A4"/>
<path d="M273.509 198.033C266.822 202.491 257.775 203.081 250.563 199.541C248.858 198.689 247.154 197.64 245.58 196.591C242.695 194.755 239.745 192.788 236.27 192.067C235.812 192.526 235.353 193.05 234.959 193.575C235.287 193.641 235.549 193.641 235.877 193.706C239.024 194.362 241.778 196.132 244.662 197.968C246.301 199.017 248.071 200.131 249.842 201.049C257.578 204.851 267.281 204.196 274.427 199.41C278.164 196.919 281.18 193.378 283.081 189.313C282.557 189.051 282.098 188.855 281.573 188.592C279.803 192.395 277.05 195.673 273.509 198.033Z" fill="#F2D0A4"/>
<path d="M300.061 253.629C302.094 247.335 303.995 241.435 308.322 236.845C309.502 235.6 310.879 234.485 312.19 233.371C312.715 232.912 313.239 232.453 313.829 231.994C315.796 230.289 317.632 228.454 319.402 226.552C319.336 225.831 319.205 225.11 319.074 224.323C317.173 226.618 315.009 228.781 312.715 230.748C312.19 231.207 311.666 231.666 311.141 232.059C309.764 233.174 308.322 234.354 307.076 235.665C302.487 240.517 300.455 246.876 298.422 253.105C298.16 253.957 297.898 254.809 297.57 255.662C298.029 256.12 298.488 256.514 298.947 256.907C299.34 255.793 299.668 254.744 300.061 253.629Z" fill="#F2D0A4"/>
<path d="M308.453 255.464C308.847 254.874 309.306 254.284 309.765 253.629C309.502 252.055 309.371 250.416 309.633 248.843C310.092 245.696 311.731 242.746 313.436 240.058C315.206 237.238 317.173 234.485 319.271 231.928C319.336 231.01 319.402 230.092 319.402 229.109C316.714 232.321 314.223 235.665 311.994 239.14C310.158 242.024 308.388 245.106 307.929 248.581C307.667 250.941 307.929 253.235 308.453 255.464Z" fill="#F2D0A4"/>
<path d="M294.489 244.254C296.915 240.91 299.865 237.96 302.75 235.075C304.848 232.912 307.077 230.748 309.044 228.388C312.19 224.651 314.682 220.717 316.452 216.587C316.124 215.931 315.796 215.341 315.403 214.686C313.698 219.013 311.076 223.34 307.732 227.273C305.765 229.568 303.602 231.797 301.504 233.895C298.619 236.845 295.603 239.861 293.112 243.27C291.866 244.975 290.817 246.745 290.031 248.45C290.49 248.843 290.883 249.302 291.342 249.695C292.129 247.86 293.178 246.024 294.489 244.254Z" fill="#F2D0A4"/>
<path d="M284.065 227.405C284.851 227.011 285.704 226.618 286.49 226.159C291.014 223.93 295.669 221.635 299.537 218.292C303.274 215.079 306.355 210.883 308.519 206.032C308.126 205.638 307.667 205.245 307.208 204.852C305.11 209.703 302.159 213.833 298.422 217.046C294.685 220.258 290.096 222.488 285.704 224.717C284.917 225.11 284.065 225.503 283.278 225.962C279.41 227.929 275.476 230.158 272.198 233.108C272.657 233.436 273.05 233.83 273.509 234.157C276.656 231.404 280.393 229.306 284.065 227.405Z" fill="#F2D0A4"/>
<path d="M281.901 240.976C284.786 238.288 288.129 235.993 291.342 233.829C294.686 231.535 298.16 229.175 301.176 226.355C305.962 221.897 309.502 216.325 312.912 210.949C312.584 210.49 312.19 210.031 311.797 209.572C308.388 215.013 304.782 220.717 300.062 225.175C297.111 227.929 293.702 230.289 290.424 232.518C287.146 234.747 283.737 237.042 280.787 239.861C280.721 239.927 280.655 239.992 280.59 240.058C280.983 240.32 281.442 240.713 281.901 240.976C281.836 241.041 281.836 241.041 281.901 240.976Z" fill="#F2D0A4"/>
<path d="M296.581 445.033C295.394 445.307 294.206 446.586 293.476 447.225C292.106 448.413 290.644 449.326 289 450.148C289.548 450.97 290.827 451.427 291.74 451.609C292.745 451.792 293.658 451.609 294.663 451.427C295.12 451.335 295.577 451.153 296.033 450.97C297.403 450.148 299.778 446.768 298.043 445.398C297.586 445.033 297.038 444.942 296.581 445.033Z" fill="#7CA661"/>
<path d="M177.658 165.928C176.654 165.014 176.197 163.37 175.74 162C175.009 162.731 174.096 163.187 173 163.279C173.457 165.288 174.644 167.115 176.471 168.028C176.562 167.389 177.11 166.384 177.658 165.928Z" fill="#AEDC90"/>
<path d="M183.129 321.466L180.754 319C180.754 319 180.389 324.937 175 327.129L177.192 328.773C177.192 328.773 181.759 326.947 183.129 321.466Z" fill="#AEDC90"/>
<path d="M43.9352 388C42.3824 388.913 40.921 389.735 39.3682 390.649C38.4548 391.197 37.5414 391.654 36.902 392.476C36.1713 393.298 35.4406 394.759 36.628 395.49C37.8154 396.221 40.0076 395.033 41.0123 394.394C42.0171 393.754 43.0218 393.024 43.6612 391.928C44.94 389.918 43.7525 388.091 43.9352 388Z" fill="#7CA661"/>
<path d="M51.1511 245.855C51.6078 248.139 53.252 249.966 55.2614 251.153C57.1796 252.249 59.2804 252.432 61.4726 252.34C61.5639 252.34 61.6552 252.34 61.7466 252.34C61.7466 252.249 61.7466 252.158 61.7466 252.066C61.5639 249.144 60.5592 246.403 58.9151 243.937C57.3623 241.654 55.2614 239.827 53.1606 238C51.6078 240.284 50.6031 243.298 51.1511 245.855Z" fill="#AEDC90"/>
<path d="M51.1511 245.855C51.6078 248.139 53.252 249.966 55.2614 251.153C57.1796 252.249 59.2804 252.432 61.4726 252.34C61.5639 252.34 61.6552 252.34 61.7466 252.34C52.2472 247.043 53.1606 238 53.1606 238C51.6078 240.284 50.6031 243.298 51.1511 245.855Z" fill="#7CA661"/>
<path d="M53.5257 242.567C53.9824 244.759 55.2612 246.951 56.7226 248.595C58.0014 250.057 59.5542 251.427 61.381 252.34C61.4723 252.34 61.5637 252.34 61.655 252.34C61.655 252.249 61.655 252.158 61.655 252.066C59.9196 251.062 58.2754 249.965 56.9967 248.321C56.2659 247.408 55.6266 246.495 55.0785 245.49C54.5305 244.485 54.2565 243.48 53.8911 242.476C53.7998 242.293 53.5257 242.384 53.5257 242.567Z" fill="#39700B"/>
<path d="M347.595 212.855C347.139 215.139 345.495 216.966 343.485 218.153C341.567 219.249 339.466 219.432 337.274 219.34C337.183 219.34 337.091 219.34 337 219.34C337 219.249 337 219.158 337 219.066C337.183 216.144 338.187 213.403 339.832 210.937C341.384 208.654 343.485 206.827 345.586 205C347.139 207.284 348.143 210.298 347.595 212.855Z" fill="#AEDC90"/>
<path d="M347.595 212.855C347.139 215.139 345.495 216.966 343.485 218.153C341.567 219.249 339.466 219.432 337.274 219.34C337.183 219.34 337.091 219.34 337 219.34C346.499 214.043 345.586 205 345.586 205C347.139 207.284 348.143 210.298 347.595 212.855Z" fill="#7CA661"/>
<path d="M345.221 209.567C344.764 211.759 343.485 213.951 342.024 215.595C340.745 217.057 339.192 218.427 337.366 219.34C337.274 219.34 337.183 219.34 337.092 219.34C337.092 219.249 337.092 219.158 337.092 219.066C338.827 218.062 340.471 216.965 341.75 215.321C342.481 214.408 343.12 213.495 343.668 212.49C344.216 211.485 344.49 210.48 344.855 209.476C344.947 209.293 345.221 209.384 345.221 209.567Z" fill="#39700B"/>
<path d="M108.913 453.65C111.383 450.485 115.937 449.945 119.101 452.415C121.88 454.576 122.652 458.358 121.108 461.369L134.539 466L145.19 423.316C143.724 423.316 142.18 422.852 140.868 421.849C137.858 419.456 137.317 415.134 139.633 412.046C141.717 409.345 145.499 408.65 148.432 410.194L154.067 387.578L136.237 376L125.045 384.182C125.739 386.42 125.431 388.967 123.887 390.897C121.494 393.985 117.017 394.602 113.852 392.286L84.2899 413.822C84.9074 414.053 85.5249 414.362 86.0652 414.748C88.5352 416.678 88.9983 420.305 87.0686 422.852C85.1389 425.322 81.5112 425.786 78.964 423.856C77.4974 422.698 76.7256 421 76.7256 419.302L67 426.403L90.3105 450.64L107.369 456.506C107.755 455.58 108.218 454.576 108.913 453.65Z" fill="#EBB64A"/>
<path d="M136.391 376.077L125.199 384.259C125.894 386.497 125.585 389.045 124.041 390.974C121.648 394.062 117.171 394.679 114.007 392.364L84.4442 413.899C85.0617 414.13 85.6792 414.439 86.2195 414.825C88.6895 416.755 89.1526 420.382 87.2229 422.93C85.2932 425.4 81.6654 425.863 79.1183 423.933C77.6517 422.775 76.8799 421.077 76.8799 419.379L67.1543 426.48L90.4648 450.717L154.221 387.578L136.391 376.077Z" fill="#EEC94D"/>
<path d="M112.463 415.751C110.842 417.835 107.909 418.144 105.825 416.6C103.741 414.979 103.432 412.046 104.976 409.962C106.597 407.878 109.53 407.569 111.614 409.113C113.698 410.734 114.084 413.744 112.463 415.751Z" fill="#EBB64A"/>
<path d="M143.415 390.974C142.412 392.287 140.482 392.518 139.17 391.515C137.858 390.511 137.626 388.582 138.63 387.269C139.633 385.957 141.563 385.726 142.875 386.729C144.187 387.733 144.419 389.662 143.415 390.974Z" fill="#EBB64A"/>
<path d="M99.5729 436.823C97.7976 439.062 94.5558 439.448 92.3174 437.749C90.0789 435.974 89.693 432.732 91.3911 430.494C93.1664 428.255 96.4083 427.87 98.6467 429.568C100.962 431.343 101.348 434.585 99.5729 436.823Z" fill="#EBB64A"/>
<path d="M132.377 442.844C130.911 444.773 128.132 445.082 126.202 443.616C124.273 442.149 123.964 439.37 125.431 437.441C126.897 435.511 129.676 435.202 131.606 436.669C133.535 438.135 133.844 440.914 132.377 442.844Z" fill="#CC9431"/>
<path d="M253.761 411.391C253.761 411.391 229.184 431.829 223.751 431.829C218.318 431.829 214.524 423.291 208.573 430.449C202.537 437.606 215.817 442.522 215.817 442.522C215.817 442.522 212.626 452.008 219.353 455.285C226.079 458.562 226.769 449.938 228.494 442.436C230.132 434.933 262.557 421.825 262.557 421.825L253.761 411.391Z" fill="#F2D0A4"/>
<path d="M333.185 393.453C344.827 372.929 325.768 348.007 302.916 353.871C302.571 353.957 302.312 354.043 301.967 354.13C284.375 359.304 247.725 409.062 248.759 413.46C250.398 420.532 257.814 412.598 254.968 418.634C252.123 424.671 249.018 428.896 264.541 425.706C280.149 422.515 325.079 406.82 332.754 394.143C332.926 393.885 333.099 393.626 333.185 393.453Z" fill="#C89059"/>
<path d="M289.722 377.5C306.107 362.236 318.783 358.786 325.424 358.269C319.387 353.785 311.453 351.715 302.916 353.871C302.571 353.957 302.312 354.043 301.967 354.13C284.375 359.304 247.725 409.062 248.759 413.46C250.398 420.532 257.814 412.598 254.968 418.634C252.123 424.671 249.018 428.896 264.541 425.706C266.869 425.188 269.887 424.412 273.337 423.464C271.957 413.719 271.871 394.143 289.722 377.5Z" fill="#BA7F4A"/>
<path d="M298.259 382.329C297.397 382.846 296.189 382.587 295.672 381.725C295.155 380.863 295.413 379.655 296.276 379.138C297.138 378.621 298.345 378.879 298.863 379.742C299.38 380.604 299.121 381.811 298.259 382.329Z" fill="#BA7F4A"/>
<path d="M290.584 392.246C289.549 392.85 288.256 392.591 287.566 391.556C286.962 390.521 287.221 389.228 288.256 388.538C289.291 387.934 290.584 388.193 291.274 389.228C291.964 390.263 291.619 391.556 290.584 392.246Z" fill="#BA7F4A"/>
<path d="M284.892 403.543C283.858 404.147 282.564 403.888 281.874 402.853C281.271 401.818 281.529 400.525 282.564 399.835C283.599 399.231 284.892 399.49 285.582 400.525C286.272 401.56 285.841 402.853 284.892 403.543Z" fill="#BA7F4A"/>
<path d="M294.723 399.921C293.947 400.438 292.912 400.18 292.481 399.403C291.964 398.627 292.222 397.592 292.999 397.161C293.775 396.644 294.809 396.903 295.241 397.679C295.758 398.455 295.499 399.403 294.723 399.921Z" fill="#BA7F4A"/>
<path d="M308.694 377.068C307.918 377.586 306.883 377.327 306.452 376.551C305.934 375.775 306.193 374.74 306.969 374.309C307.745 373.791 308.78 374.05 309.211 374.826C309.729 375.602 309.47 376.637 308.694 377.068Z" fill="#BA7F4A"/>
<path d="M234.9 338.8C248.1 338.8 258.8 328.1 258.8 314.9C258.8 301.7 248.1 291 234.9 291C221.7 291 211 301.7 211 314.9C211 328.1 221.7 338.8 234.9 338.8Z" fill="#EBB64A"/>
<path d="M234.9 336.468C246.812 336.468 256.468 326.812 256.468 314.9C256.468 302.988 246.812 293.332 234.9 293.332C222.988 293.332 213.332 302.988 213.332 314.9C213.332 326.812 222.988 336.468 234.9 336.468Z" fill="white"/>
<path d="M215.664 314.252H230.237C231.338 314.252 231.921 312.892 231.143 312.115L220.845 301.752C220.327 301.234 219.42 301.298 218.967 301.817C216.441 304.861 214.822 308.682 214.433 312.827C214.368 313.605 214.951 314.252 215.664 314.252Z" fill="#EEC94D"/>
<path d="M230.301 315.483H215.663C214.886 315.483 214.303 316.131 214.433 316.908C214.821 321.053 216.505 324.875 218.967 327.919C219.42 328.502 220.327 328.566 220.845 327.983L231.143 317.685C231.985 316.843 231.403 315.483 230.301 315.483Z" fill="#EEC94D"/>
<path d="M232.827 294.433C228.682 294.821 224.861 296.505 221.817 298.967C221.234 299.42 221.169 300.327 221.752 300.845L232.05 311.143C232.827 311.92 234.188 311.402 234.188 310.236V295.663C234.252 294.951 233.605 294.368 232.827 294.433Z" fill="#EEC94D"/>
<path d="M237.685 311.208L247.983 300.91C248.502 300.392 248.437 299.485 247.919 299.031C244.874 296.505 241.053 294.886 236.908 294.498C236.131 294.433 235.483 295.016 235.483 295.728V310.301C235.483 311.402 236.843 311.985 237.685 311.208Z" fill="#EEC94D"/>
<path d="M239.434 314.252H254.007C254.784 314.252 255.367 313.605 255.238 312.827C254.849 308.682 253.165 304.861 250.704 301.817C250.25 301.234 249.344 301.169 248.825 301.752L238.527 312.05C237.75 312.892 238.333 314.252 239.434 314.252Z" fill="#EEC94D"/>
<path d="M254.072 315.483H239.499C238.398 315.483 237.815 316.843 238.592 317.62L248.89 327.919C249.409 328.437 250.315 328.372 250.769 327.854C253.295 324.81 254.914 320.988 255.303 316.843C255.367 316.131 254.784 315.483 254.072 315.483Z" fill="#EEC94D"/>
<path d="M232.115 318.527L221.816 328.825C221.298 329.343 221.363 330.25 221.881 330.704C224.925 333.23 228.747 334.849 232.892 335.237C233.669 335.302 234.317 334.719 234.317 334.007V319.434C234.252 318.333 232.892 317.75 232.115 318.527Z" fill="#EEC94D"/>
<path d="M237.685 318.527C236.908 317.75 235.548 318.268 235.548 319.434V334.007C235.548 334.784 236.196 335.367 236.973 335.237C241.118 334.849 244.939 333.165 247.984 330.703C248.567 330.25 248.631 329.343 248.048 328.825L237.685 318.527Z" fill="#EEC94D"/>
<path d="M111.123 320.239C111.123 320.239 114.201 321.383 115.959 319.238C117.718 317.093 120.356 311.016 126.292 309.014C127.831 308.514 129.15 308.085 130.322 307.727C132.887 306.941 134.939 305.01 135.819 302.508C136.771 299.934 138.823 296.645 143.293 294.643C151.427 291.069 151.281 288.066 152.233 285.492C153.186 282.918 159.561 290.783 158.169 301.15C156.777 311.516 146.591 318.451 146.591 318.451C146.591 318.451 142.267 323.885 132.741 326.53C123.288 329.176 118.964 323.671 117.279 322.813C115.666 321.955 112.662 324.457 111.196 323.17C109.877 321.955 111.123 320.239 111.123 320.239Z" fill="#D4E86D"/>
<path d="M158.169 301.221C159.562 290.854 153.186 282.918 152.234 285.563C151.647 287.208 151.501 288.995 149.376 290.997C150.548 292.928 151.721 296.002 151.574 300.721C151.281 310.158 142.341 308.943 139.483 312.088C136.625 315.234 137.138 322.741 127.391 323.456C121.602 323.885 118.231 321.097 116.473 318.594C116.253 318.88 116.106 319.095 115.96 319.309C114.201 321.454 111.123 320.31 111.123 320.31C111.123 320.31 109.877 321.955 111.27 323.242C112.662 324.529 115.666 322.026 117.352 322.884C118.964 323.742 123.288 329.247 132.814 326.602C142.267 323.957 146.664 318.523 146.664 318.523C146.664 318.523 156.704 311.588 158.169 301.221Z" fill="#B5CD5A"/>
<path d="M246.055 263C243.315 263 243.315 267.293 246.055 267.293C248.795 267.202 248.795 263 246.055 263Z" fill="#FFF1CE"/>
<path d="M196.016 412.011H195.925C195.377 412.103 194.92 412.742 195.012 413.29C195.012 413.838 195.377 414.478 195.925 414.569H196.016C196.839 414.752 197.661 414.204 197.661 413.29C197.661 412.377 196.839 411.92 196.016 412.011Z" fill="#FFF1CE"/>
<path d="M170.85 249C168.383 249 168.383 252.836 170.85 252.836C173.316 252.836 173.316 249 170.85 249Z" fill="#FFF1CE"/>
<path d="M104.364 346.675C104.364 346.675 107.515 347.533 109.054 345.245C110.593 342.957 112.718 336.666 118.434 334.163C119.9 333.52 121.219 332.948 122.318 332.519C124.809 331.446 126.715 329.373 127.374 326.871C128.034 324.225 129.793 320.794 134.043 318.434C141.884 314.144 141.371 311.213 142.104 308.568C142.836 305.922 149.871 313.215 149.432 323.653C148.992 334.092 139.466 341.885 139.466 341.885C139.466 341.885 135.655 347.676 126.422 351.108C117.188 354.539 112.425 349.463 110.74 348.748C109.054 348.033 106.269 350.75 104.731 349.606C103.338 348.462 104.364 346.675 104.364 346.675Z" fill="#D4E86D"/>
<path d="M149.505 323.653C149.945 313.215 142.837 305.851 142.177 308.568C141.737 310.284 141.737 312.071 139.832 314.287C141.224 316.075 142.617 319.077 142.91 323.796C143.423 333.234 134.483 332.805 131.918 336.165C129.353 339.525 130.525 346.961 120.926 348.534C115.136 349.463 111.619 346.961 109.64 344.601C109.494 344.887 109.347 345.173 109.201 345.388C107.662 347.676 104.511 346.818 104.511 346.818C104.511 346.818 103.485 348.605 104.95 349.749C106.489 350.893 109.274 348.176 110.959 348.891C112.645 349.606 117.481 354.682 126.642 351.25C135.875 347.819 139.685 342.028 139.685 342.028C139.685 342.028 149.065 334.092 149.505 323.653Z" fill="#B5CD5A"/>
<rect x="120" y="799" width="134" height="5" rx="2.5" fill="white"/>
</g>
<defs>
<clipPath id="clip0_701_771">
<rect width="375" height="812" fill="white"/>
</clipPath>
<clipPath id="clip1_701_771">
<rect width="375" height="44" fill="white"/>
</clipPath>
</defs>
</svg>
