<svg width="20" height="20" viewBox="0 0 20 20" fill="none" xmlns="http://www.w3.org/2000/svg">
<path d="M9.99564 2.45C11.7623 2.45 13.429 2.82933 14.9956 3.588C16.5623 4.34667 17.8706 5.44233 18.9206 6.875C19.0373 7.025 19.075 7.15833 19.0336 7.275C18.9923 7.39167 18.9213 7.49167 18.8206 7.575C18.72 7.65833 18.6033 7.696 18.4706 7.688C18.338 7.68 18.2213 7.609 18.1206 7.475C17.204 6.175 16.025 5.17933 14.5836 4.488C13.1423 3.79667 11.613 3.45067 9.99564 3.45C8.37831 3.44933 6.86164 3.79533 5.44564 4.488C4.02964 5.18067 2.85464 6.17633 1.92064 7.475C1.82064 7.625 1.70397 7.70833 1.57064 7.725C1.43731 7.74167 1.32064 7.70833 1.22064 7.625C1.10397 7.54167 1.03297 7.43767 1.00764 7.313C0.982307 7.18833 1.01997 7.059 1.12064 6.925C2.15397 5.50833 3.44997 4.40833 5.00864 3.625C6.56731 2.84167 8.22964 2.45 9.99564 2.45ZM9.99564 4.8C12.2456 4.8 14.179 5.55 15.7956 7.05C17.4123 8.55 18.2206 10.4083 18.2206 12.625C18.2206 13.4583 17.925 14.1543 17.3336 14.713C16.7423 15.2717 16.0213 15.5507 15.1706 15.55C14.32 15.5493 13.591 15.2703 12.9836 14.713C12.3763 14.1557 12.072 13.4597 12.0706 12.625C12.0706 12.075 11.8666 11.6123 11.4586 11.237C11.0506 10.8617 10.563 10.6743 9.99564 10.675C9.42831 10.6757 8.94064 10.8633 8.53264 11.238C8.12464 11.6127 7.92064 12.075 7.92064 12.625C7.92064 14.2417 8.39997 15.5917 9.35864 16.675C10.3173 17.7583 11.5546 18.5167 13.0706 18.95C13.2206 19 13.3206 19.0833 13.3706 19.2C13.4206 19.3167 13.429 19.4417 13.3956 19.575C13.3623 19.6917 13.2956 19.7917 13.1956 19.875C13.0956 19.9583 12.9706 19.9833 12.8206 19.95C11.0873 19.5167 9.67064 18.654 8.57064 17.362C7.47064 16.07 6.92064 14.491 6.92064 12.625C6.92064 11.7917 7.22064 11.0917 7.82064 10.525C8.42064 9.95833 9.14564 9.675 9.99564 9.675C10.8456 9.675 11.5706 9.95833 12.1706 10.525C12.7706 11.0917 13.0706 11.7917 13.0706 12.625C13.0706 13.175 13.279 13.6377 13.6956 14.013C14.1123 14.3883 14.604 14.5757 15.1706 14.575C15.7373 14.5743 16.2206 14.387 16.6206 14.013C17.0206 13.639 17.2206 13.1763 17.2206 12.625C17.2206 10.6917 16.5123 9.06667 15.0956 7.75C13.679 6.43333 11.9873 5.775 10.0206 5.775C8.05397 5.775 6.36231 6.43333 4.94564 7.75C3.52897 9.06667 2.82064 10.6833 2.82064 12.6C2.82064 13 2.85831 13.5 2.93364 14.1C3.00897 14.7 3.18797 15.4 3.47064 16.2C3.52064 16.35 3.51664 16.4833 3.45864 16.6C3.40064 16.7167 3.30464 16.8 3.17064 16.85C3.03664 16.9 2.90764 16.896 2.78364 16.838C2.65964 16.78 2.57197 16.684 2.52064 16.55C2.27064 15.9 2.09164 15.2543 1.98364 14.613C1.87564 13.9717 1.82131 13.309 1.82064 12.625C1.82064 10.4083 2.62497 8.55 4.23364 7.05C5.84231 5.55 7.76297 4.8 9.99564 4.8ZM9.99564 0C11.0623 0 12.104 0.129 13.1206 0.387C14.1373 0.645 15.1206 1.016 16.0706 1.5C16.2206 1.58333 16.3083 1.68333 16.3336 1.8C16.359 1.91667 16.3463 2.03333 16.2956 2.15C16.245 2.26667 16.1616 2.35833 16.0456 2.425C15.9296 2.49167 15.788 2.48333 15.6206 2.4C14.7373 1.95 13.8246 1.60433 12.8826 1.363C11.9406 1.12167 10.9783 1.00067 9.99564 1C9.02897 1 8.07897 1.11267 7.14564 1.338C6.21231 1.56333 5.32064 1.91733 4.47064 2.4C4.33731 2.48333 4.20397 2.50433 4.07064 2.463C3.93731 2.42167 3.83731 2.334 3.77064 2.2C3.70397 2.066 3.68731 1.94533 3.72064 1.838C3.75397 1.73067 3.83731 1.63467 3.97064 1.55C4.90397 1.05 5.87897 0.666667 6.89564 0.4C7.91231 0.133333 8.94564 0 9.99564 0ZM9.99564 7.225C11.5456 7.225 12.879 7.746 13.9956 8.788C15.1123 9.83 15.6706 11.109 15.6706 12.625C15.6706 12.775 15.625 12.896 15.5336 12.988C15.4423 13.08 15.3213 13.1257 15.1706 13.125C15.0373 13.125 14.9206 13.0793 14.8206 12.988C14.7206 12.8967 14.6706 12.7757 14.6706 12.625C14.6706 11.375 14.208 10.3293 13.2826 9.488C12.3573 8.64667 11.2616 8.22567 9.99564 8.225C8.72964 8.22433 7.64231 8.64533 6.73364 9.488C5.82497 10.3307 5.37064 11.3763 5.37064 12.625C5.37064 13.975 5.60397 15.121 6.07064 16.063C6.53731 17.005 7.22064 17.9507 8.12064 18.9C8.22064 19 8.27064 19.1167 8.27064 19.25C8.27064 19.3833 8.22064 19.5 8.12064 19.6C8.02064 19.7 7.90397 19.75 7.77064 19.75C7.63731 19.75 7.52064 19.7 7.42064 19.6C6.43731 18.5667 5.68331 17.5127 5.15864 16.438C4.63397 15.3633 4.37131 14.0923 4.37064 12.625C4.37064 11.1083 4.92064 9.829 6.02064 8.787C7.12064 7.745 8.44564 7.22433 9.99564 7.225ZM9.97064 12.125C10.1206 12.125 10.2416 12.175 10.3336 12.275C10.4256 12.375 10.4713 12.4917 10.4706 12.625C10.4706 13.875 10.9206 14.9 11.8206 15.7C12.7206 16.5 13.7706 16.9 14.9706 16.9C15.0706 16.9 15.2123 16.8917 15.3956 16.875C15.579 16.8583 15.7706 16.8333 15.9706 16.8C16.1206 16.7667 16.25 16.7877 16.3586 16.863C16.4673 16.9383 16.538 17.0507 16.5706 17.2C16.604 17.3333 16.579 17.45 16.4956 17.55C16.4123 17.65 16.304 17.7167 16.1706 17.75C15.8706 17.8333 15.6083 17.8793 15.3836 17.888C15.159 17.8967 15.0213 17.9007 14.9706 17.9C13.4873 17.9 12.1996 17.4 11.1076 16.4C10.0156 15.4 9.46997 14.1417 9.47064 12.625C9.47064 12.4917 9.51664 12.375 9.60864 12.275C9.70064 12.175 9.82131 12.125 9.97064 12.125Z" fill="#01194A"/>
</svg>
