<svg width="20" height="20" viewBox="0 0 20 20" fill="none" xmlns="http://www.w3.org/2000/svg">
<path d="M4.90757 0.833496H2.87053C2.33028 0.833496 1.81215 1.04811 1.43013 1.43013C1.04811 1.81215 0.833496 2.33028 0.833496 2.87053V4.90757M15.0928 0.833496H17.1298C17.67 0.833496 18.1882 1.04811 18.5702 1.43013C18.9522 1.81215 19.1668 2.33028 19.1668 2.87053V4.90757M14.0742 5.92609V7.96313M5.92609 5.92609V7.96313M6.94461 14.0742C6.94461 14.0742 7.96313 15.0928 10.0002 15.0928C12.0372 15.0928 13.0557 14.0742 13.0557 14.0742M10.0002 5.92609V11.0187H8.98164M4.90757 19.1668H2.87053C2.33028 19.1668 1.81215 18.9522 1.43013 18.5702C1.04811 18.1882 0.833496 17.67 0.833496 17.1298V15.0928M15.0928 19.1668H17.1298C17.67 19.1668 18.1882 18.9522 18.5702 18.5702C18.9522 18.1882 19.1668 17.67 19.1668 17.1298V15.0928" stroke="#01194A" stroke-width="1.25" stroke-linecap="round" stroke-linejoin="round"/>
</svg>
